<svg width="68" height="56" viewBox="0 0 68 56" fill="none" xmlns="http://www.w3.org/2000/svg">
<rect width="68" height="56" fill="#E5E5E5"/>
<path d="M68 28C68 43.464 52.7777 56 34 56C15.2223 56 0 43.464 0 28C0 12.536 15.2223 0 34 0C52.7777 0 68 12.536 68 28Z" fill="#005080"/>
<path d="M34.554 22.08L36.516 22.026C36.672 22.026 36.75 22.092 36.75 22.224C36.75 22.464 36.372 23.172 35.616 24.348C34.86 25.524 34.2 26.55 33.636 27.426C33.084 28.302 32.808 28.83 32.808 29.01C32.808 29.13 32.976 29.19 33.312 29.19C33.648 29.19 33.942 29.142 34.194 29.046C34.446 28.938 34.632 28.8 34.752 28.632C34.956 28.344 35.058 28.08 35.058 27.84C35.058 27.6 35.034 27.366 34.986 27.138C34.986 26.994 35.118 26.91 35.382 26.886C36.006 26.886 36.42 27.06 36.624 27.408C36.78 27.684 36.858 27.966 36.858 28.254C36.858 28.902 36.594 29.388 36.066 29.712C35.538 30.036 34.914 30.198 34.194 30.198L32.142 30.144L30.324 30.18C30.108 30.18 30 30.108 30 29.964C30 29.808 30.192 29.412 30.576 28.776C30.972 28.14 31.368 27.54 31.764 26.976L32.358 26.13C33.366 24.546 33.9 23.694 33.96 23.574C34.032 23.442 34.068 23.328 34.068 23.232C34.068 23.064 33.894 22.98 33.546 22.98C33.198 22.98 32.88 23.028 32.592 23.124C32.316 23.22 32.088 23.34 31.908 23.484C31.728 23.616 31.572 23.754 31.44 23.898C31.2 24.162 31.08 24.33 31.08 24.402C31.044 24.522 30.978 24.582 30.882 24.582H30.864C30.696 24.582 30.612 24.48 30.612 24.276C30.612 23.808 30.72 23.256 30.936 22.62L31.062 22.296C31.11 22.128 31.236 22.044 31.44 22.044L34.554 22.08Z" fill="#FFA500"/>
<path d="M28.394 24.37L27.962 24.352C27.638 24.352 27.428 24.43 27.332 24.586C27.308 24.622 27.278 24.64 27.242 24.64C27.086 24.64 27.008 24.376 27.008 23.848C27.008 23.308 27.086 22.966 27.242 22.822C27.41 22.678 27.692 22.606 28.088 22.606C28.496 22.606 28.772 22.678 28.916 22.822C29.06 22.954 29.132 23.182 29.132 23.506C29.132 23.83 29.078 24.058 28.97 24.19C28.862 24.31 28.67 24.37 28.394 24.37ZM26.954 33.46L27.152 29.266C27.152 28.27 27.038 27.592 26.81 27.232C26.738 27.112 26.654 27.022 26.558 26.962C26.486 26.938 26.45 26.89 26.45 26.818C26.45 26.602 26.756 26.392 27.368 26.188C27.98 25.984 28.424 25.882 28.7 25.882C28.988 25.882 29.138 25.954 29.15 26.098C29.15 26.338 29.114 27.022 29.042 28.15C28.982 29.266 28.952 30.442 28.952 31.678C28.952 32.914 29.024 33.682 29.168 33.982C29.204 34.042 29.222 34.102 29.222 34.162C29.222 34.318 28.994 34.396 28.538 34.396C28.082 34.396 27.614 34.276 27.134 34.036C27.014 33.976 26.954 33.784 26.954 33.46Z" fill="#FFA500"/>
<path d="M25.912 21.99C25.696 23.286 25.588 24.936 25.588 26.94C25.588 28.416 25.648 29.388 25.768 29.856L25.84 30.09C25.84 30.246 25.708 30.324 25.444 30.324C24.52 30.324 23.992 30.066 23.86 29.55C23.848 29.49 23.818 29.46 23.77 29.46C23.734 29.46 23.698 29.484 23.662 29.532C23.29 30.024 22.714 30.27 21.934 30.27C21.502 30.27 21.052 30.162 20.584 29.946C20.296 29.814 20.062 29.586 19.882 29.262C19.702 28.926 19.612 28.518 19.612 28.038L19.882 24.096C19.882 23.268 19.798 22.68 19.63 22.332C19.57 22.2 19.54 22.116 19.54 22.08C19.54 22.008 19.57 21.96 19.63 21.936C19.822 21.876 20.068 21.846 20.368 21.846C21.532 21.846 22.114 22.326 22.114 23.286C22.114 23.586 21.988 24.27 21.736 25.338C21.496 26.406 21.376 27.168 21.376 27.624C21.376 28.068 21.472 28.41 21.664 28.65C21.868 28.89 22.144 29.01 22.492 29.01C22.852 29.01 23.134 28.884 23.338 28.632C23.542 28.38 23.662 28.128 23.698 27.876L23.752 27.498C23.8 27.078 23.824 26.34 23.824 25.284C23.824 24.228 23.788 23.562 23.716 23.286C23.656 22.998 23.626 22.818 23.626 22.746C23.626 22.446 23.866 22.212 24.346 22.044C24.826 21.864 25.258 21.774 25.642 21.774C25.822 21.774 25.912 21.846 25.912 21.99Z" fill="#FFA500"/>
<path d="M13.104 22.092C12.6 22.644 12.348 23.346 12.348 24.198C12.348 25.038 12.564 25.542 12.996 25.71C13.104 25.746 13.158 25.824 13.158 25.944C13.158 26.304 13.038 26.61 12.798 26.862C12.558 27.102 12.264 27.246 11.916 27.294C11.808 27.294 11.754 27.336 11.754 27.42C11.742 27.552 11.736 27.744 11.736 27.996C11.736 28.236 11.748 28.506 11.772 28.806C11.796 29.094 11.85 29.442 11.934 29.85C12.03 30.246 12.15 30.594 12.294 30.894C12.45 31.182 12.666 31.434 12.942 31.65C13.23 31.854 13.56 31.956 13.932 31.956C14.304 31.956 14.646 31.848 14.958 31.632C14.682 31.008 14.394 30.564 14.094 30.3L13.95 30.174C13.914 30.126 13.896 30.078 13.896 30.03C13.896 29.898 14.016 29.832 14.256 29.832C14.748 29.832 15.252 30.09 15.768 30.606C16.224 29.67 16.452 28.452 16.452 26.952C16.452 24.528 16.05 22.92 15.246 22.128C14.898 21.792 14.526 21.624 14.13 21.624C13.734 21.624 13.392 21.78 13.104 22.092ZM10.944 23.226L11.016 23.118C11.136 22.566 11.328 22.092 11.592 21.696C11.868 21.288 12.138 20.988 12.402 20.796C12.678 20.592 12.984 20.436 13.32 20.328C13.764 20.184 14.154 20.112 14.49 20.112C15.294 20.112 15.984 20.298 16.56 20.67C17.148 21.042 17.592 21.546 17.892 22.182C18.444 23.394 18.72 24.768 18.72 26.304C18.72 28.884 18.108 30.786 16.884 32.01C17.448 32.634 18 32.946 18.54 32.946C18.696 32.946 18.774 33 18.774 33.108C18.774 33.3 18.552 33.504 18.108 33.72C17.664 33.948 17.19 34.062 16.686 34.062L16.11 34.008C15.954 33.984 15.828 33.924 15.732 33.828C15.636 33.744 15.576 33.624 15.552 33.468L15.426 32.964C14.862 33.192 14.286 33.306 13.698 33.306C12.198 33.306 11.094 32.796 10.386 31.776C9.678 30.744 9.324 29.442 9.324 27.87C9.324 26.958 9.402 26.124 9.558 25.368C9.714 24.6 9.876 24.06 10.044 23.748L10.278 23.28C10.326 23.172 10.404 23.118 10.512 23.118C10.62 23.118 10.698 23.13 10.746 23.154C10.806 23.166 10.848 23.184 10.872 23.208C10.908 23.22 10.932 23.226 10.944 23.226Z" fill="#FFA500"/>
<path d="M37.972 27.998L37.882 24.596C37.882 24.056 37.822 23.63 37.702 23.318C37.582 23.006 37.522 22.838 37.522 22.814C37.522 22.55 37.924 22.346 38.728 22.202C39.544 22.058 40.162 21.986 40.582 21.986C41.014 21.986 41.248 22.088 41.284 22.292C42.04 25.664 42.676 28.004 43.192 29.312C43.252 29.456 43.312 29.528 43.372 29.528C43.444 29.528 43.504 29.474 43.552 29.366C44.356 27.098 45.064 24.854 45.676 22.634C45.724 22.49 45.844 22.382 46.036 22.31C46.228 22.226 46.558 22.148 47.026 22.076C47.506 22.004 47.98 21.968 48.448 21.968C48.916 21.968 49.15 22.064 49.15 22.256C49.15 22.268 49.132 22.364 49.096 22.544C49.06 22.712 49.024 22.922 48.988 23.174C48.952 23.426 48.91 23.732 48.862 24.092C48.754 24.92 48.682 25.874 48.646 26.954C48.622 28.022 48.61 29.096 48.61 30.176L48.646 32.066C48.646 32.93 48.7 33.548 48.808 33.92C48.928 34.28 48.988 34.49 48.988 34.55C48.988 34.598 48.946 34.658 48.862 34.73C48.49 35.03 47.926 35.18 47.17 35.18C46.69 35.18 46.42 35.018 46.36 34.694C46.324 34.526 46.306 34.262 46.306 33.902C46.306 33.53 46.342 32.402 46.414 30.518C46.486 28.634 46.522 27.266 46.522 26.414C46.522 25.55 46.474 25.118 46.378 25.118C46.366 25.118 46.36 25.124 46.36 25.136C46.36 25.136 46.342 25.142 46.306 25.154C46.27 25.166 46.174 25.352 46.018 25.712C45.874 26.072 45.58 26.96 45.136 28.376C44.692 29.792 44.29 31.118 43.93 32.354C43.57 33.578 43.372 34.238 43.336 34.334C43.204 34.658 42.952 34.82 42.58 34.82C42.4 34.82 42.256 34.754 42.148 34.622C41.764 32.846 41.08 30.308 40.096 27.008L39.592 25.37C39.568 25.31 39.544 25.28 39.52 25.28C39.46 25.28 39.418 25.322 39.394 25.406C39.346 26.186 39.322 27.722 39.322 30.014C39.322 32.294 39.406 33.734 39.574 34.334C39.586 34.358 39.592 34.394 39.592 34.442C39.592 34.694 39.394 34.88 38.998 35C38.602 35.108 38.242 35.162 37.918 35.162C37.606 35.162 37.45 35.09 37.45 34.946C37.45 34.934 37.48 34.838 37.54 34.658C37.72 34.046 37.834 33.158 37.882 31.994C37.942 30.83 37.972 29.498 37.972 27.998Z" fill="#FFA500"/>
<path d="M51.25 25.428L51.268 25.878C51.268 25.95 51.316 25.986 51.412 25.986C51.796 25.95 52.132 25.854 52.42 25.698C52.708 25.53 52.924 25.344 53.068 25.14C53.356 24.696 53.512 24.312 53.536 23.988L53.554 23.772C53.554 23.124 53.296 22.8 52.78 22.8C52.396 22.8 52.084 22.968 51.844 23.304C51.448 23.832 51.25 24.54 51.25 25.428ZM55.174 27.822C55.174 28.278 55.078 28.68 54.886 29.028C54.706 29.364 54.496 29.616 54.256 29.784C54.028 29.94 53.758 30.066 53.446 30.162C53.05 30.282 52.672 30.342 52.312 30.342C51.304 30.342 50.56 29.964 50.08 29.208C49.6 28.452 49.36 27.492 49.36 26.328C49.36 25.152 49.654 24.108 50.242 23.196C50.842 22.284 51.736 21.828 52.924 21.828C54.004 21.828 54.736 22.206 55.12 22.962C55.276 23.25 55.354 23.526 55.354 23.79C55.354 24.042 55.342 24.246 55.318 24.402C55.294 24.546 55.21 24.768 55.066 25.068C54.922 25.368 54.73 25.638 54.49 25.878C54.25 26.118 53.872 26.346 53.356 26.562C52.84 26.778 52.234 26.922 51.538 26.994C51.442 26.994 51.394 27.036 51.394 27.12C51.394 27.228 51.43 27.39 51.502 27.606C51.586 27.81 51.676 27.984 51.772 28.128C52.036 28.464 52.426 28.632 52.942 28.632C53.458 28.632 53.896 28.464 54.256 28.128C54.448 27.948 54.604 27.726 54.724 27.462C54.772 27.366 54.832 27.318 54.904 27.318C54.988 27.318 55.054 27.384 55.102 27.516C55.15 27.648 55.174 27.75 55.174 27.822Z" fill="#FFA500"/>
</svg>
